<svg width="48" height="48" viewBox="0 0 48 48" fill="none" xmlns="http://www.w3.org/2000/svg">
<path d="M13.5569 44.5473L13.5281 44.3011C13.5281 44.3011 13.509 44.12 13.4611 44.0552C13.4131 43.9905 13.3844 43.861 13.3844 43.861L13.2588 43.6493C13.2588 43.6493 13.2651 43.904 13.2212 44.1333C13.1771 44.3626 13.1207 44.3965 13.0893 44.4818C13.0577 44.5666 13.0388 44.6261 13.0388 44.6261L12.9951 44.711C12.9951 44.711 12.9698 44.7363 12.9446 44.7789C12.9194 44.8214 12.907 44.8722 12.907 44.8722C12.907 44.8722 12.8818 44.8469 12.8377 44.9066C12.7938 44.9658 12.7875 44.9658 12.7497 44.9827C12.712 44.9998 12.6682 45.0338 12.6429 45.0338C12.6178 45.0338 12.5425 45.0339 12.4544 45.0933C12.3665 45.1528 12.2784 45.1695 12.2784 45.1695C12.2784 45.1695 12.0773 45.2289 12.0145 45.2377C11.9517 45.2463 11.9013 45.2715 11.9013 45.2715L11.8826 45.331L11.8448 45.314L11.8259 45.2801C11.8259 45.2801 11.6563 45.2715 11.5745 45.2885C11.4928 45.3056 11.4111 45.3056 11.4111 45.3056C11.4111 45.3056 11.1912 45.3056 11.1471 45.314C11.1033 45.3223 11.0213 45.3056 11.0026 45.2885C10.9839 45.2715 10.9839 45.2035 10.9839 45.2035C10.9839 45.2035 11.0276 45.11 11.0152 45.0678C11.0026 45.0251 10.9839 44.9743 10.9839 44.9743L10.9901 44.9404L11.0089 44.9066L11.0213 44.8722L10.9963 44.7873L10.9901 44.6939L10.9839 44.6346H10.9272L10.8645 44.6685L10.8327 44.6346C10.789 44.6685 10.7637 44.6854 10.7637 44.6854C10.7637 44.6854 10.7385 44.6939 10.7198 44.6516C10.7009 44.6091 10.6318 44.541 10.6821 44.5157C10.7323 44.4901 10.7323 44.4901 10.7575 44.524C10.7826 44.5581 10.8266 44.6004 10.8579 44.5581C10.8895 44.5157 10.9334 44.5072 10.9334 44.5072L10.9839 44.439L11.0152 44.4219C11.0152 44.4219 11.0276 44.0993 11.0276 44.0146C11.0276 43.9294 10.9649 43.8617 10.9649 43.7935C10.9649 43.7258 10.9839 43.5221 10.9839 43.3603C10.9839 43.1988 10.9712 42.8253 10.9839 42.7572C10.9963 42.6895 11.0341 42.6809 11.0465 42.6299C11.0592 42.5789 11.0465 42.4346 11.0465 42.3921C11.0465 42.3498 11.0026 42.3328 11.0341 42.2731C11.0655 42.2136 11.0592 42.1372 11.0592 42.1372C11.0592 42.1372 11.0465 41.789 11.0718 41.6106C11.097 41.432 11.1722 41.3727 11.2414 41.2964C11.3106 41.2199 11.3608 41.1858 11.4048 41.1606C11.4489 41.1351 11.5432 41.0923 11.5432 41.0923L11.5619 41.033L11.5934 41.05C11.5934 41.05 11.6501 40.9992 11.6813 40.9821C11.7128 40.965 11.8134 40.9105 11.807 40.8716C11.8007 40.8327 11.8448 40.8289 11.8448 40.8289C11.8448 40.8289 11.5554 40.8086 11.4425 40.8206C11.3295 40.8327 11.3104 40.8765 11.2414 40.8547C11.1724 40.8327 10.9334 40.8631 10.9334 40.8631H10.8645L10.77 40.8377L10.7386 40.8547L10.7071 40.9225L10.657 40.9733L10.5939 41.0584V41.1435C10.5939 41.1435 10.5502 41.033 10.5502 40.9905C10.5502 40.948 10.5376 40.8886 10.5376 40.8886L10.4935 40.8631C10.4935 40.8631 10.3928 40.8765 10.3051 40.8547C10.217 40.8327 10.1353 40.8716 10.1353 40.8716L10.041 40.9395H9.93422L9.89647 40.8631C9.89647 40.8631 9.8335 40.8716 9.7833 40.8716H9.58217L9.4941 40.8547L9.33716 40.8631C9.33716 40.8631 9.33695 40.8765 9.23654 40.8547C9.13613 40.8327 9.05123 40.855 9.05123 40.855C9.05123 40.855 9.13746 40.9196 9.17583 40.9585L9.2143 40.9974C9.2143 40.9974 9.23338 41.0235 9.28114 41.0622C9.3293 41.1011 9.39645 41.1916 9.39645 41.1916L9.4538 41.2563C9.4538 41.2563 9.53053 41.2824 9.55931 41.3603C9.58799 41.4378 9.60717 41.5025 9.63605 41.6322C9.66462 41.7617 9.67431 41.8913 9.67431 41.8913L9.71268 41.9691L9.6935 42.0467C9.6935 42.0467 9.70309 42.0858 9.70309 42.2153C9.70309 42.3448 9.75095 42.4875 9.75095 42.4875V42.8631C9.75095 42.9798 9.76065 43.161 9.76065 43.161V43.3555C9.76065 43.3555 9.79902 43.6664 9.77983 43.7573C9.76065 43.8479 9.77024 43.9515 9.77024 43.9515C9.77024 43.9515 9.79902 44.0552 9.76065 44.12C9.76065 44.12 9.75116 44.5087 9.74136 44.6124C9.73197 44.716 9.74136 45.0009 9.71268 45.1046C9.68391 45.2082 9.59768 45.3768 9.5688 45.4285C9.54013 45.4805 9.36757 45.7008 9.36757 45.7008C9.36757 45.7008 9.26216 45.7526 9.15664 45.8172C9.05123 45.8821 8.9651 45.9338 8.9651 45.9338L8.83061 46.0116C8.83061 46.0116 8.82112 46.0373 8.89786 46.0373C8.97449 46.0373 9.0799 46.0504 9.14715 46.0504C9.2143 46.0504 9.36757 46.0116 9.36757 46.0116L9.44431 45.9596C9.44431 45.9596 9.61666 45.9078 9.65513 45.9209C9.6935 45.9338 9.76065 45.9338 9.76065 45.9338L10.1154 45.9726C10.1154 45.9726 10.6882 46.0172 10.7385 45.9857C10.7887 45.9541 10.9398 45.9857 10.9398 45.9857C10.9398 45.9857 10.995 45.9391 11.026 45.9467C11.0572 45.9544 11.11 45.9653 11.141 45.9596C11.1722 45.9541 11.3018 46.0432 11.3041 45.9988C11.3063 45.9538 11.2849 45.869 11.3905 45.8821L11.467 45.8432L11.5055 45.8821L11.4576 45.9209L11.5055 45.9726C11.5055 45.9726 11.6373 45.9394 11.6971 45.9467C11.757 45.9541 12.0112 45.9911 12.071 45.9726C12.1306 45.9541 12.3298 45.9988 12.3298 45.9988C12.3298 45.9988 12.385 45.9394 12.4161 45.9467C12.4473 45.9541 12.7613 45.9467 12.7613 45.9467C12.7613 45.9467 12.9147 45.9338 12.9818 45.9338C13.0489 45.9338 13.1734 46.0373 13.2214 46.1025C13.2214 46.1025 13.3173 45.869 13.3844 45.7136C13.4516 45.558 13.4803 45.2863 13.4995 45.1824C13.5188 45.0787 13.5474 44.9491 13.5474 44.9491C13.5474 44.9491 13.5761 44.9362 13.5665 44.8066C13.5569 44.6769 13.5569 44.5473 13.5569 44.5473ZM21.1416 45.61C21.1416 45.61 21.0777 45.5325 20.94 45.4216C20.8022 45.3104 20.7655 45.2328 20.7655 45.2328L20.7014 45.0995L20.6831 44.9887L20.6189 44.9329L20.5913 44.8444L20.5452 44.7998L20.4904 44.6556C20.4904 44.6556 20.3892 44.2894 20.307 44.1341C20.2243 43.9786 20.1416 43.7566 20.1416 43.7566C20.1416 43.7566 20.0499 43.5457 20.0316 43.4792C20.0131 43.4127 19.9765 43.3351 19.9765 43.3351L19.9123 43.2683L19.8573 43.2905L19.7653 43.2795L19.7838 43.1685L19.8573 43.0798L19.848 42.9464L19.793 42.8466C19.793 42.8466 19.6369 42.647 19.6094 42.5471C19.5819 42.4471 19.4901 42.2586 19.4901 42.2586L19.4258 42.0698C19.4258 42.0698 19.3157 41.7257 19.3066 41.6926C19.2974 41.6592 19.1964 41.3817 19.1598 41.3374L19.0955 41.1487C19.0955 41.1487 19.0864 40.9933 19.0314 40.9712C18.9761 40.9487 18.9304 40.9265 18.9304 40.9265L18.8938 40.8268C18.8938 40.8268 18.7654 40.5826 18.7468 40.5162C18.7468 40.5162 18.5265 40.7602 18.4898 40.8046C18.4532 40.8493 18.3338 40.9487 18.3338 40.9487C18.3338 40.9487 18.1505 41.0267 18.0862 41.0931C18.0219 41.1598 17.9486 41.2152 17.9486 41.2152C17.9486 41.2152 17.6732 41.3706 17.6182 41.4149C17.5631 41.4595 17.5263 41.4926 17.5263 41.4926L17.453 41.5815L17.3796 41.5705C17.3796 41.5705 17.1962 41.7146 17.1503 41.7701C17.1045 41.8257 16.9761 41.9142 16.9576 42.0142C16.9576 42.0142 17.1778 41.9143 17.2327 41.9033C17.2879 41.892 17.4073 41.8699 17.4073 41.8699L17.4898 41.8257L17.6732 41.8036C17.6732 41.8036 17.7285 41.7589 17.8018 41.8036C17.8751 41.8479 17.9028 41.8257 17.9669 41.8367C18.0312 41.8479 18.0952 41.892 18.0952 41.892L18.1321 41.9367C18.1321 41.9367 18.1688 41.9477 18.2055 41.9921C18.2422 42.0365 18.2697 42.1142 18.2697 42.1142C18.2697 42.1142 18.2329 42.1918 18.1962 42.2249C18.1595 42.2586 18.1138 42.3251 18.1138 42.3251L18.0586 42.3805C18.0586 42.3805 18.0678 42.347 17.9852 42.3916C17.9026 42.4361 17.8475 42.4913 17.8475 42.4913L17.8109 42.5138C17.8109 42.5138 17.7559 42.5582 17.7191 42.6137C17.6823 42.6691 17.6823 42.6691 17.6548 42.7357C17.6274 42.8022 17.6182 42.8577 17.6182 42.8577C17.6182 42.8577 17.609 42.8467 17.5631 42.9132C17.5173 42.9798 17.5265 43.0352 17.4715 43.0686L17.4164 43.102C17.4164 43.102 17.4165 43.1685 17.3889 43.2683C17.3613 43.3682 17.2969 43.4682 17.2969 43.4682C17.2969 43.4682 17.2236 43.5682 17.2327 43.6123C17.242 43.6566 17.242 43.7011 17.242 43.7011H17.1686C17.1686 43.7011 17.086 43.9233 17.0767 43.9564L17.0678 43.9895L16.9207 43.9786C16.9207 43.9786 16.749 43.9786 16.6204 43.9895C16.4921 44.0007 16.6044 44.0007 16.6044 44.0007L16.467 44.0342C16.467 44.0342 16.3934 44.0342 16.3108 44.0676C16.2283 44.1007 16.1194 44.1341 16.1194 44.1341C16.1194 44.1341 16.0999 44.2007 16.2191 44.2451C16.3384 44.2894 16.4945 44.3226 16.4945 44.3226C16.4945 44.3226 16.5678 44.367 16.6597 44.3783C16.7513 44.3894 16.6939 44.4004 16.6939 44.4004C16.6939 44.4004 16.749 44.4004 16.7856 44.4337L16.8223 44.4669L16.7374 44.5226L16.93 44.5447C16.93 44.5447 16.7558 44.9775 16.7098 45.0995C16.6639 45.2217 16.5629 45.3438 16.5629 45.3438C16.5629 45.3438 16.5721 45.3104 16.4438 45.4437C16.3153 45.5768 16.1317 45.721 16.0492 45.7654C15.9666 45.8098 15.9024 45.8543 15.9024 45.8543C15.9024 45.8543 15.8107 45.8874 15.774 45.9653C15.774 45.9653 15.9572 46.0097 16.0399 46.0207C16.1225 46.0318 16.2418 46.0094 16.2418 46.0094C16.2418 46.0094 16.3498 45.9926 16.4529 45.9874C16.5559 45.9821 16.6914 46.0094 16.6914 46.0094L16.8565 46.0318L16.9851 46.0428C16.9851 46.0428 17.0494 46.065 17.2053 46.065C17.3613 46.065 17.5723 46.0762 17.5723 46.0762L17.9212 46.0872H18.0402C18.0402 46.0872 17.9302 45.9874 17.8569 45.9429C17.7833 45.8987 17.6823 45.821 17.6823 45.821C17.6823 45.821 17.5633 45.7656 17.5539 45.699C17.5449 45.6321 17.5905 45.4437 17.5905 45.4437L17.5815 45.3216C17.5815 45.3216 17.5539 45.2328 17.5723 45.1438C17.5905 45.0551 17.609 44.8998 17.609 44.8998L17.6732 44.5557L17.7742 44.6335H17.9392C18.0219 44.6335 18.1413 44.6112 18.2238 44.6335C18.3065 44.6556 18.5725 44.6666 18.7011 44.6666C18.8295 44.6666 18.8664 44.6666 18.9212 44.6778C18.9761 44.6888 19.0038 44.711 19.0587 44.711C19.114 44.711 19.1414 44.7113 19.2791 44.7C19.4167 44.6888 19.4534 44.6556 19.4534 44.6556H19.5361C19.5361 44.6556 19.5544 44.7223 19.5544 44.8219C19.5544 44.9219 19.5726 45.0107 19.5726 45.1662V45.4216C19.5726 45.4216 19.6184 45.4769 19.5177 45.5878C19.4167 45.699 19.3524 45.821 19.3524 45.821C19.3524 45.821 19.2884 45.8874 19.215 45.9653L19.1507 46.0094C19.1507 46.0094 19.2241 46.0094 19.3066 46.0428C19.3891 46.0762 19.5083 46.0207 19.5083 46.0207C19.5083 46.0207 19.6716 46.0149 19.7563 45.9984C19.8405 45.9821 20.1323 46.054 20.1783 46.054C20.2243 46.054 20.417 46.065 20.417 46.065C20.417 46.065 20.5729 46.0097 20.7104 46.0207C20.8482 46.0318 20.9124 46.0318 20.9124 46.0318C20.9124 46.0318 21.0478 46.0591 21.0958 46.0207C21.144 45.9821 21.197 46.0318 21.197 46.0318L21.2795 46.054H21.4355C21.4355 46.054 21.6282 46.065 21.6832 46.065H21.8208C21.8208 46.065 21.5548 45.8321 21.4445 45.7654C21.3343 45.699 21.1416 45.61 21.1416 45.61ZM18.857 43.7566C18.7744 43.7566 18.6552 43.7787 18.6552 43.7787L18.4992 43.7901L18.4441 43.8342L18.3798 43.8564C18.3798 43.8564 18.3982 43.8898 18.3522 43.9009C18.3065 43.9123 18.2605 43.9344 18.2605 43.9344C18.2605 43.9344 18.1781 43.9344 18.1781 43.89C18.1781 43.8454 18.1229 43.7901 18.1229 43.7901L18.0495 43.7787L18.0312 43.7122L17.9392 43.7235C17.9392 43.7235 18.0495 43.3907 18.1414 43.2683C18.2329 43.1463 18.3065 42.8799 18.3065 42.8799C18.3065 42.8799 18.3708 42.7245 18.4165 42.6691C18.4625 42.6137 18.5175 42.4802 18.5175 42.4802C18.5175 42.4802 18.7011 42.7579 18.7378 42.8466C18.7744 42.9354 18.8018 42.9908 18.8018 42.9908C18.8018 42.9908 18.8203 43.091 18.857 43.1685C18.8938 43.2461 18.9395 43.3682 18.9395 43.3682L19.0404 43.5571L19.1047 43.7235C19.1047 43.7235 18.9395 43.7566 18.857 43.7566ZM39.1412 41.2233C39.3399 41.1152 39.5336 40.9923 39.7291 40.8754C39.7264 40.853 39.7237 40.8308 39.7213 40.8086C39.4932 40.8059 39.2653 40.8028 39.0372 40.8016C39.0263 40.8016 39.0159 40.823 39.0042 40.825C38.8928 40.8442 38.781 40.8738 38.6693 40.8752C38.5374 40.8769 38.405 40.838 38.2735 40.8442C38.0554 40.8541 37.8382 40.8915 37.6202 40.9071C37.4719 40.9177 37.3231 40.9107 37.1748 40.9116C37.2559 41.0187 37.3438 41.1039 37.4401 41.1673C37.5795 41.2592 37.6337 41.404 37.6388 41.5968C37.6456 41.851 37.7535 41.8492 37.8784 42.0238C37.7561 42.2349 37.6622 41.8414 37.6588 42.1265C37.6574 42.2539 37.6386 42.7766 37.6352 42.9041C37.6246 43.3027 37.6043 43.7014 37.6081 44.0997C37.6113 44.4367 37.6525 44.7729 37.6587 45.1102C37.6678 45.5926 37.5909 45.7219 37.2425 45.9114C37.1387 45.9678 37.0425 46.0468 36.9431 46.1156C36.9489 46.1232 36.955 46.1309 36.9611 46.1384C37.2613 46.1366 37.5872 46.2291 37.8552 46.1085C38.1688 45.9671 38.4412 46.1991 38.7287 46.1093C38.7412 46.1056 39.1643 46.128 39.1771 46.1289C39.3895 46.1443 39.0929 46.0345 39.3056 46.0496C39.3501 46.0527 39.4945 46.1505 39.5393 46.1502C39.5475 46.1352 39.5553 46.1202 39.5634 46.1049C39.4874 46.0189 39.4117 45.932 39.3349 45.8472C39.2534 45.757 39.163 45.678 39.0906 45.5772C38.9925 45.4404 38.9087 45.2764 38.9594 45.082C39.0104 44.887 39.0147 44.6979 39.0016 44.4965C38.9806 44.1712 38.9798 43.8436 38.9668 43.5172C38.9514 43.131 38.9145 42.7446 38.9202 42.3593C38.9248 42.0575 38.987 41.7579 39.0109 41.4555C39.0204 41.3334 39.0541 41.2705 39.1412 41.2233ZM26.8335 43.3806C26.7152 43.3065 26.6157 43.1799 26.481 43.1206C26.365 43.0692 26.243 43.0337 26.1226 42.998C26.0075 42.9639 25.9014 42.8224 25.7955 42.8059C25.8022 42.6129 25.668 42.6939 25.587 42.7078C25.5898 42.6852 25.5819 42.6544 25.5842 42.6314C25.4427 42.6222 25.3113 42.4327 25.1845 42.3529C25.0479 42.2671 24.8618 42.1312 24.7161 42.123C24.6978 41.9131 24.9494 41.536 25.0949 41.4625C25.1807 41.4195 25.3199 41.3941 25.4133 41.3618C25.5508 41.3142 25.685 41.3759 25.829 41.3593C25.8244 41.3171 25.9276 41.2653 25.9214 41.3395C26.0648 41.3389 26.2296 41.3879 26.3708 41.4268C26.4411 41.4461 26.4776 41.4922 26.5337 41.5437C26.6069 41.611 26.6658 41.6112 26.7514 41.663C26.8895 41.7464 26.9886 41.9782 27.0859 42.1212C27.158 42.2276 27.2523 42.3309 27.2789 42.494C27.263 42.2229 27.2434 41.9316 27.2147 41.6574C27.2009 41.5247 27.1747 41.4065 27.156 41.2817C27.1284 41.0958 27.1598 40.886 27.1386 40.701C26.8893 40.9741 26.5039 40.8505 26.1996 40.8909C25.8404 40.9388 25.5125 40.8161 25.1568 40.8581C25.0805 40.8671 25.0312 40.9254 24.9728 40.9405C24.9124 40.9559 24.8615 40.9159 24.7998 40.9232C24.653 40.9405 24.4716 41.0672 24.3462 41.1697C24.1055 41.3662 23.9161 41.5225 23.7664 41.8492C23.7104 41.9714 23.6249 42.1008 23.582 42.2343C23.5454 42.3491 23.5634 42.5475 23.5127 42.6497C23.4891 42.6971 23.4311 42.7335 23.3856 42.766C23.4751 42.8609 23.6236 42.8747 23.7298 42.9085C23.8189 42.9368 23.9149 43.0137 23.9994 43.0359C24.0552 43.0507 24.1116 43.0246 24.1724 43.0377C24.1541 43.2617 24.4126 43.3665 24.5425 43.474C24.6309 43.5471 24.7084 43.5773 24.7947 43.6366C24.875 43.6915 24.9476 43.805 25.0314 43.8289C25.0339 43.8135 25.0313 43.7999 25.0345 43.7847C25.1355 43.8025 25.2032 43.889 25.3034 43.8963C25.4048 43.9036 25.516 43.8828 25.5137 44.0888C25.6769 44.0909 25.8264 44.2833 25.9724 44.3546C26.1106 44.4221 26.292 44.6339 26.4305 44.6466C26.2977 44.9023 26.1555 45.1584 25.9296 45.2973C25.7523 45.4066 25.6506 45.398 25.451 45.4268C25.4234 45.4308 25.3902 45.4725 25.3652 45.4736C25.3381 45.4748 25.3027 45.4277 25.2791 45.4395C25.2197 45.4699 25.1969 45.4824 25.2427 45.5802C25.2224 45.5701 25.203 45.578 25.1822 45.5728C25.2042 45.6315 25.1819 45.7948 25.1279 45.809C25.1338 45.7203 25.1309 45.5495 25.1302 45.4623C24.9817 45.4234 24.7834 45.4315 24.6526 45.3063C24.5041 45.1638 24.3382 45 24.1708 44.8368C24.0785 44.7467 24.0156 44.7303 23.9532 44.6117C23.9309 44.5694 23.9298 44.5073 23.9051 44.4674C23.8886 44.4407 23.8337 44.4378 23.8211 44.4137C23.7576 44.292 23.7138 44.045 23.6955 43.9014C23.6949 44.0668 23.6434 44.2367 23.6249 44.4022C23.6072 44.5605 23.6139 44.7277 23.5971 44.8882C23.5646 45.1961 23.4945 45.5332 23.4004 45.8074C23.5036 45.7035 23.5524 45.5695 23.6919 45.537C23.851 45.4999 23.9735 45.6293 24.1253 45.6678C24.3624 45.7281 24.5878 45.9111 24.8244 45.9606C24.9672 45.9905 25.078 45.9584 25.2168 46.0287C25.2168 46.0352 25.2145 46.0399 25.2099 46.0418C25.414 46.0356 25.6141 45.9925 25.8212 45.9923C26.0896 45.9922 26.3477 45.8355 26.587 45.6951C26.7011 45.6279 26.7515 45.5147 26.8607 45.439C26.9739 45.3605 27.0092 45.3056 27.0921 45.1957C27.2141 45.0338 27.3727 44.9211 27.354 44.6466C27.4408 44.6426 27.5161 44.4036 27.5487 44.3025C27.5807 44.2036 27.5653 44.1447 27.6238 44.0716C27.6757 44.0068 27.8016 43.9642 27.8676 43.958C27.7247 43.8953 27.6031 43.7585 27.4652 43.6847C27.2523 43.5709 27.0395 43.5096 26.8335 43.3806ZM23.3523 42.7917C23.3616 42.7833 23.3735 42.7748 23.3856 42.766C23.3785 42.7586 23.371 42.7515 23.3646 42.7427L23.3523 42.7917ZM33.436 43.3806C33.3184 43.3065 33.2196 43.1799 33.0858 43.1206C32.9705 43.0692 32.8494 43.0337 32.7299 42.998C32.6156 42.9639 32.7099 42.9672 32.6048 42.9507C32.6112 42.7577 32.4779 42.8387 32.3976 42.8526C32.4003 42.83 32.3925 42.7991 32.3948 42.7761C32.2541 42.767 31.9241 42.4327 31.798 42.3529C31.6625 42.2671 31.4774 42.1312 31.333 42.123C31.3145 41.9131 31.5644 41.536 31.7092 41.4625C31.7942 41.4195 31.9325 41.3941 32.0255 41.3618C32.1618 41.3142 32.2952 41.3759 32.4382 41.3593C32.4336 41.3171 32.3204 41.2122 32.3207 41.1758C32.3712 41.2265 32.5362 41.2653 32.5301 41.3395C32.6725 41.3389 32.8361 41.3879 32.9765 41.4268C33.0462 41.4461 33.0825 41.4922 33.1382 41.5437C33.2108 41.611 33.2695 41.6112 33.3544 41.663C33.4916 41.7464 33.59 41.9782 33.6866 42.1212C33.7582 42.2276 33.9587 42.3549 33.9853 42.5178C33.9695 42.2467 33.8431 41.9316 33.8147 41.6574C33.8009 41.5247 33.775 41.4065 33.7563 41.2817C33.7287 41.0958 33.7601 40.886 33.7391 40.701C33.4913 40.9741 33.1087 40.8505 32.8062 40.8909C32.4494 40.9388 32.1241 40.8161 31.7704 40.8581C31.6948 40.8671 31.7023 41.0021 31.6444 41.0171C31.5844 41.0326 31.4772 40.9159 31.4161 40.9232C31.2701 40.9405 31.0899 41.0672 30.9653 41.1697C30.7262 41.3662 30.5382 41.5225 30.3894 41.8492C30.3337 41.9714 30.2491 42.1008 30.2063 42.2343C30.17 42.3491 30.188 42.5475 30.1373 42.6497C30.1148 42.6955 30.0595 42.6949 30.0152 42.7092C30.1046 42.8095 30.2492 42.8753 30.3531 42.9085C30.4415 42.9368 30.8274 43.231 30.9114 43.2532C30.9667 43.2679 31.0228 43.2419 31.0833 43.255C31.0649 43.4789 31.0313 43.3665 31.1606 43.474C31.2482 43.5471 31.3252 43.5773 31.411 43.6366C31.4907 43.6915 31.563 43.805 31.6461 43.8289C31.6485 43.8135 31.5134 43.5276 31.5164 43.5122C31.6168 43.5301 31.8166 43.889 31.9161 43.8963C32.0168 43.9036 32.1273 43.8828 32.1251 44.0888C32.2871 44.0909 32.4358 44.2833 32.5805 44.3546C32.7179 44.4221 32.8982 44.6339 33.0359 44.6466C32.9038 44.9023 32.7624 45.1584 32.5382 45.2973C32.362 45.4066 32.2609 45.398 32.0627 45.4268C32.0353 45.4308 32.0023 45.4725 31.9776 45.4736C31.9506 45.4748 31.9165 45.4471 31.8919 45.4395C31.8371 45.4228 31.7448 45.5495 31.7442 45.4623C31.5967 45.4234 31.3997 45.4315 31.2696 45.3063C31.1222 45.1638 30.9576 45 30.7911 44.8368C30.6994 44.7467 30.6188 44.851 30.5569 44.7324C30.5347 44.69 30.5337 44.628 30.5091 44.5881C30.4927 44.5614 30.4564 44.4378 30.4438 44.4137C30.3808 44.292 30.3371 44.045 30.3191 43.9014C30.3184 44.0668 30.2672 44.2367 30.2491 44.4022C30.2315 44.5605 30.2381 44.7277 30.2212 44.8882C30.1889 45.1961 30.1194 45.5332 30.0259 45.8074C30.1284 45.7035 30.177 45.5695 30.3155 45.537C30.4736 45.4999 30.5952 45.6293 30.7461 45.6678C30.9815 45.7281 31.2055 45.9111 31.4402 45.9606C31.5823 45.9905 31.7103 45.9825 31.8484 46.0529C31.8484 46.0595 31.8461 46.0639 31.8415 46.066C32.0441 46.0598 32.2248 45.9925 32.4307 45.9923C32.697 45.9922 32.9535 45.8355 33.1911 45.6951C33.3047 45.6279 33.3546 45.5147 33.4629 45.439C33.5754 45.3605 33.6106 45.3056 33.6927 45.1957C33.814 45.0338 33.9714 44.9211 33.9531 44.6466C34.0393 44.6426 34.114 44.4036 34.1465 44.3025C34.1781 44.2036 34.1621 44.3081 34.2202 44.235C34.2718 44.1702 34.3976 43.9642 34.4632 43.958C34.3212 43.8953 34.2003 43.7585 34.0633 43.6847C33.8519 43.5709 33.6407 43.5096 33.436 43.3806ZM29.9782 42.7285C29.9886 42.7193 30.0014 42.7136 30.0152 42.7092C30.0066 42.6997 29.9978 42.69 29.9902 42.6797L29.9782 42.7285ZM1 43.0679C1.01249 43.0503 1.02643 43.035 1.04016 43.0191L1.03841 43.0168L1 43.0679ZM6.04916 44.9285C5.94881 45.0408 5.82306 45.1295 5.70537 45.2096C5.63589 45.2569 5.56713 45.3089 5.49342 45.3237C5.43963 45.3344 5.40277 45.2914 5.34609 45.3277C5.3496 45.3688 5.32968 45.3993 5.33009 45.4391C5.26711 45.4373 5.20331 45.4495 5.13931 45.4608L4.83093 45.4293C4.82298 45.4228 4.81358 45.4166 4.80078 45.4115C4.76403 45.3964 4.72263 45.389 4.67441 45.3766L4.6835 45.4141L4.58728 45.4044C4.35613 45.4096 4.06468 45.2746 3.86656 45.1524C3.74845 45.0797 3.67381 44.932 3.5588 44.8687C3.48839 44.8298 3.4025 44.8623 3.33353 44.8107C3.30122 44.7869 3.30215 44.7339 3.28129 44.708C3.05964 44.4343 2.79421 44.2626 2.68611 43.8564C2.61612 43.5954 2.61054 43.2246 2.46064 43.0133C2.53652 42.9241 2.55541 42.7903 2.61137 42.6827C2.66413 42.5809 2.73278 42.488 2.79782 42.4015C2.99615 42.1381 3.21388 41.9639 3.46568 41.8163C3.68517 41.6879 3.91488 41.5695 4.15347 41.5071C4.20158 41.4945 4.24297 41.4868 4.27983 41.4713C4.3299 41.4508 4.32794 41.4146 4.40011 41.4046C4.53339 41.386 4.6739 41.4444 4.80904 41.4399C4.80863 41.4797 4.82876 41.5099 4.82556 41.5512C4.88234 41.5869 4.91878 41.5437 4.97267 41.5541C5.04659 41.5684 5.11556 41.6197 5.18524 41.6665C5.30325 41.7458 5.42931 41.8334 5.52996 41.945C5.64198 42.069 5.6968 42.2194 5.80334 42.3375C5.89358 42.4372 6.0028 42.4744 6.07683 42.5813C6.0218 42.2221 5.9199 41.8537 5.87747 41.4851C5.85403 41.2828 5.75792 41.118 5.69029 40.9432C5.64869 40.8352 5.57642 40.4135 5.49651 40.3521C5.34991 40.6195 5.33464 40.8402 5.07158 40.8403C4.82205 40.8403 4.58026 40.7619 4.33042 40.774C4.08863 40.7857 3.89268 40.7243 3.64542 40.7573C3.54125 40.7712 3.45112 40.8297 3.3549 40.8536C3.28057 40.8719 3.15792 40.8534 3.11652 40.874C2.89703 40.9052 2.7079 41.1454 2.50204 41.2415C2.51722 41.3531 2.54468 41.4695 2.67208 41.4995C2.62552 41.5068 2.31693 41.3815 2.27625 41.3869C2.24301 41.3913 2.20182 41.4473 2.17342 41.4679C1.9783 41.6086 1.9242 41.8057 1.79464 42.0225C1.74808 42.1004 1.69687 42.1266 1.64546 42.1885C1.57195 42.2769 1.54242 42.4078 1.49638 42.5365C1.41317 42.7693 1.19223 42.8437 1.04016 43.0191C1.10923 43.1077 1.26636 43.3552 1.30621 43.4636C1.34854 43.5791 1.4238 43.6821 1.45653 43.8067C1.49999 43.9709 1.48987 44.0477 1.56823 44.1603C1.64401 44.269 1.69574 44.3977 1.75458 44.5407C1.82695 44.7164 1.91233 44.9037 2.00277 45.0688C2.0994 45.2446 2.1725 45.302 2.31796 45.4046C2.54757 45.5666 2.72493 45.7232 2.96992 45.839C3.05943 46.0886 3.46692 46.1896 3.65657 46.168C3.89753 46.1407 4.14738 46.1565 4.39752 46.1359C4.54887 46.1233 4.69444 46.0796 4.84548 46.0715L4.85447 46.1086C4.95636 46.1127 5.05692 46.1017 5.15706 46.0872C5.25689 46.0974 5.35683 46.1071 5.4578 46.1018C5.54679 46.0973 5.63165 46.0729 5.71507 46.0413C5.88077 46.0592 5.94158 46.132 6.06 46.3457C6.13732 46.2857 6.17253 46.0373 6.21362 45.9289C6.22487 45.8996 6.23685 45.8707 6.24913 45.8416C6.26648 45.8387 6.28351 45.8341 6.30127 45.8326C6.28898 45.8219 6.27649 45.8136 6.26421 45.8064C6.3213 45.6739 6.38118 45.5405 6.39842 45.3856C6.4393 45.0171 6.53986 44.6477 6.59303 44.2879C6.51962 44.3954 6.4106 44.4334 6.32088 44.5339C6.21465 44.6528 6.16035 44.8036 6.04916 44.9285ZM46.7305 44.7807C46.6254 44.8991 46.5719 44.8128 46.4615 44.9373C46.3622 45.0495 46.2377 45.1377 46.1214 45.2177C46.0526 45.2646 45.9845 45.3165 45.9115 45.3313C45.8583 45.342 45.8218 45.2991 45.7659 45.3353C45.7694 45.3762 45.7495 45.4066 45.7499 45.4463C45.6879 45.4446 45.6244 45.4566 45.5612 45.4679L45.256 45.4365C45.248 45.4301 45.2388 45.4239 45.2262 45.4188C45.1897 45.4038 45.1486 45.3964 45.101 45.3841L45.1101 45.4215L45.015 45.4117C44.7861 45.4169 44.4975 45.2822 44.3014 45.1606C44.1846 45.088 44.1106 44.9409 43.9971 44.8779C43.9272 44.839 43.8423 44.8716 43.7738 44.8201C43.7419 44.7963 43.7429 44.7434 43.7222 44.7178C43.5027 44.445 43.2403 44.2738 43.1331 43.8691C43.0638 43.6089 43.0584 43.2394 42.9102 43.0288C42.9852 42.9398 43.0037 42.8066 43.0593 42.6993C43.1116 42.5978 43.1794 42.5051 43.2438 42.419C43.4401 42.1564 43.6557 41.9828 43.9047 41.8359C44.122 41.7077 44.3493 41.5899 44.5856 41.5277C44.6333 41.5151 44.6741 41.5072 44.7107 41.492C44.76 41.4713 44.7582 41.4355 44.8297 41.4254C44.9615 41.4069 45.3142 41.4768 45.4481 41.472C45.4478 41.5119 45.2539 41.5304 45.2506 41.5715C45.3067 41.6072 45.343 41.564 45.3963 41.5744C45.4694 41.5886 45.5375 41.6399 45.6065 41.6864C45.7234 41.7652 45.8482 41.8527 45.9479 41.964C46.0586 42.0876 46.1129 42.2375 46.2185 42.3553C46.3079 42.4546 46.4158 42.4917 46.4889 42.5982C46.4348 42.2401 46.3339 41.873 46.2917 41.5058C46.2686 41.3042 46.1734 41.1398 46.1065 40.9656C46.0653 40.858 46.0295 40.6107 45.9528 40.5514C45.812 40.8103 45.7543 40.863 45.4942 40.8631C45.2472 40.8631 45.0079 40.7847 44.7607 40.7969C44.5215 40.8086 44.3273 40.7474 44.0828 40.7803C43.9797 40.7941 43.8904 40.8525 43.795 40.8763C43.7214 40.8945 43.6001 40.8762 43.5591 40.8966C43.3421 40.9276 43.1547 41.1671 42.9511 41.2629C42.966 41.3741 42.7677 41.4024 42.7276 41.4079C42.6946 41.4122 42.6538 41.468 42.6257 41.4886C42.4327 41.6286 42.4176 42.1667 42.2892 42.3829C42.2431 42.4605 42.3167 41.8291 42.2658 41.8908C42.193 41.979 42.0013 42.4252 41.9558 42.5535C41.866 42.8063 41.7773 42.9721 41.6329 43.1788L41.5805 43.3057C41.6459 43.3896 41.7277 43.3685 41.7676 43.4774C41.8095 43.5925 41.8838 43.6952 41.9165 43.8195C41.9593 43.9829 41.9492 44.0596 42.0268 44.1719C42.1019 44.28 42.153 44.4084 42.2115 44.551C42.2828 44.726 42.3673 44.9128 42.457 45.0772C42.5526 45.2525 42.625 45.3099 42.769 45.4121C42.996 45.5733 43.1716 45.7294 43.4142 45.8447C43.5025 46.0936 43.9061 46.1944 44.0938 46.1729C44.3322 46.1456 44.5793 46.1613 44.8272 46.1407C44.9767 46.1282 45.121 46.0847 45.2703 46.0766L45.2793 46.1136C45.3801 46.1177 45.4796 46.1067 45.5787 46.0922C45.6776 46.1025 45.7765 46.112 45.8764 46.1068C45.9645 46.1022 46.0485 46.078 46.1311 46.0465C46.2952 46.0643 46.3552 46.137 46.4723 46.35C46.5488 46.29 46.5837 46.0424 46.6245 45.9344C46.6355 45.9053 46.6474 45.8765 46.6595 45.8475C46.6766 45.8445 46.6937 45.8399 46.7112 45.8384C46.699 45.8278 46.6868 45.8195 46.6747 45.8123C46.7311 45.6802 46.7903 45.5474 46.8074 45.393C46.8478 45.0256 46.9472 44.6576 47 44.299C46.9274 44.4062 46.8194 44.6805 46.7305 44.7807Z" fill="white"/>
<path d="M24.2369 36.8923C33.5717 36.8923 41.139 29.3249 41.139 19.9901C41.139 10.6553 33.5717 3.08795 24.2369 3.08795C14.902 3.08795 7.33469 10.6553 7.33469 19.9901C7.33469 29.3249 14.902 36.8923 24.2369 36.8923Z" fill="#20222C"/>
<path d="M27.7339 24.8276C27.7144 24.8082 27.6756 24.7888 27.695 24.7111L24.4894 12.1024C23.3432 16.26 22.5272 20.5341 21.2838 24.6722L21.245 24.5945C21.245 24.5945 19.1079 14.4726 18.8942 13.2875C18.6805 12.1024 19.3022 10.8202 19.3022 10.8202H13.0464C13.8236 11.2088 14.2315 12.083 14.523 12.8213L18.4474 29.704C18.5445 30.4423 17.9811 31.1417 17.4177 31.7634H23.7123C23.4792 31.1611 23.2655 30.5977 23.2655 29.8983L24.6254 23.7397C25.014 25.5853 25.4025 27.4115 25.7911 29.2572C26.0242 30.0926 25.8688 31.0251 25.5191 31.7634H31.7748C31.4446 31.1805 30.9394 30.3451 31.056 29.4515L33.5039 14.5503C33.8147 12.8407 34.6501 11.9665 35.4661 10.8008C33.4456 10.8202 31.5028 10.8396 29.2881 10.8396C30.0652 11.5585 29.6378 12.7241 29.5795 13.5984L27.7339 24.8276ZM39.8568 11.0145V6.31297H35.9518C32.8045 3.63193 28.7247 2 24.2563 2C19.7879 2 15.6886 3.63193 12.5608 6.31297H8.63634V10.9951C7.10155 13.6567 6.22729 16.7068 6.22729 19.9901C6.22729 23.254 7.10155 26.3236 8.63634 28.9658V33.6479H12.5413C15.6886 36.3289 19.7685 37.9608 24.2368 37.9608C28.7052 37.9608 32.7851 36.3289 35.9324 33.6479H39.8374V28.9658C41.3527 26.3236 42.2464 23.254 42.227 19.9901C42.2464 16.7263 41.3722 13.6567 39.8568 11.0145ZM24.2563 35.2604C15.8052 35.2604 8.94718 28.4218 8.94718 19.9707C8.94718 11.539 15.8052 4.68103 24.2563 4.68103C32.7074 4.68103 39.5654 11.5196 39.5654 19.9707C39.5459 28.4218 32.7074 35.2604 24.2563 35.2604Z" fill="#80B640"/>
</svg>
