<svg fill="none" height="12" viewBox="0 0 12 12" width="12" xmlns="http://www.w3.org/2000/svg"><path d="m5.0625 0c-.32812 0-.5625.257812-.5625.5625v3.9375h-2.0625c-.42188 0-.63281.51562-.32812.82031l3.5625 3.5625c.16406.16407.46874.16407.63281 0l3.5625-3.5625c.30471-.30469.09375-.82031-.32813-.82031h-2.03906v-3.9375c0-.304688-.25781-.5625-.5625-.5625zm6.9375 8.8125c0-.30469-.2578-.5625-.5625-.5625h-3.44531l-1.14844 1.14844c-.46875.49218-1.24219.49218-1.71094 0l-1.14843-1.14844h-3.42188c-.328125 0-.5625.25781-.5625.5625v2.625c0 .3281.234375.5625.5625.5625h10.875c.3047 0 .5625-.2344.5625-.5625zm-2.90625 2.0625c0 .2578-.21094.4688-.46875.4688s-.46875-.211-.46875-.4688.21094-.4688.46875-.4688.46875.211.46875.4688zm1.50005 0c0 .2578-.211.4688-.4688.4688-.25781 0-.46875-.211-.46875-.4688s.21094-.4688.46875-.4688c.2578 0 .4688.211.4688.4688z" fill="#0094ff"/></svg>